<?xml version="1.0" encoding="UTF-8"?>
<svg width="1200pt" height="1200pt" version="1.1" viewBox="0 0 1200 1200" xmlns="http://www.w3.org/2000/svg">
 <path d="m171.99 619.11c0 20.27-16.434 36.699-36.699 36.699-20.27 0-36.699-16.43-36.699-36.699s16.43-36.699 36.699-36.699c20.266 0 36.699 16.43 36.699 36.699z"/>
 <path d="m286.65 619.11c0 20.27-16.43 36.699-36.699 36.699-20.266 0-36.695-16.43-36.695-36.699s16.43-36.699 36.695-36.699c20.27 0 36.699 16.43 36.699 36.699z"/>
 <path d="m401.31 619.11c0 20.27-16.43 36.699-36.699 36.699-20.266 0-36.699-16.43-36.699-36.699s16.434-36.699 36.699-36.699c20.27 0 36.699 16.43 36.699 36.699z"/>
 <path d="m515.97 619.11c0 20.27-16.434 36.699-36.703 36.699-20.266 0-36.699-16.43-36.699-36.699s16.434-36.699 36.699-36.699c20.27 0 36.703 16.43 36.703 36.699z"/>
 <path d="m745.29 619.11c0 20.27-16.43 36.699-36.699 36.699s-36.699-16.43-36.699-36.699 16.43-36.699 36.699-36.699 36.699 16.43 36.699 36.699z"/>
 <path d="m859.95 619.11c0 20.27-16.43 36.699-36.699 36.699-20.27 0-36.699-16.43-36.699-36.699s16.43-36.699 36.699-36.699c20.27 0 36.699 16.43 36.699 36.699z"/>
 <path d="m974.61 619.11c0 20.27-16.43 36.699-36.699 36.699-20.27 0-36.699-16.43-36.699-36.699s16.43-36.699 36.699-36.699c20.27 0 36.699 16.43 36.699 36.699z"/>
 <path d="m1089.3 619.11c0 20.27-16.434 36.699-36.699 36.699-20.27 0-36.699-16.43-36.699-36.699s16.43-36.699 36.699-36.699c20.266 0 36.699 16.43 36.699 36.699z"/>
 <path d="m630.63 1077.8c0 20.27-16.434 36.699-36.699 36.699-20.27 0-36.699-16.43-36.699-36.699 0-20.27 16.43-36.699 36.699-36.699 20.266 0 36.699 16.43 36.699 36.699z"/>
 <path d="m630.63 963.09c0 20.266-16.434 36.699-36.699 36.699-20.27 0-36.699-16.434-36.699-36.699 0-20.27 16.43-36.699 36.699-36.699 20.266 0 36.699 16.43 36.699 36.699z"/>
 <path d="m630.63 848.43c0 20.27-16.43 36.699-36.695 36.699-20.27 0-36.699-16.43-36.699-36.699 0-20.266 16.43-36.699 36.699-36.699 20.266 0 36.695 16.434 36.695 36.699z"/>
 <path d="m630.63 733.77c0 20.266-16.434 36.699-36.699 36.699-20.27 0-36.699-16.434-36.699-36.699 0-20.27 16.43-36.699 36.699-36.699 20.266 0 36.699 16.43 36.699 36.699z"/>
 <path d="m630.22 613.93c-0.09375-0.66406-0.17188-1.3281-0.30469-1.9883-0.12109-0.60156-0.28516-1.1836-0.43359-1.7734-0.14453-0.57422-0.26953-1.1484-0.44141-1.7148-0.17578-0.57422-0.39062-1.1328-0.59375-1.6953-0.20312-0.56641-0.39062-1.1367-0.62109-1.6953-0.21484-0.52344-0.47266-1.0234-0.71094-1.5312-0.26953-0.57812-0.52734-1.1602-0.83203-1.7266-0.25781-0.47656-0.54688-0.92969-0.82422-1.3945-0.33594-0.56641-0.65625-1.1367-1.0234-1.6875-0.33203-0.49609-0.70312-0.96094-1.0586-1.4375-0.35938-0.48438-0.69531-0.97656-1.082-1.4453-0.66016-0.80469-1.3672-1.5703-2.0938-2.3164-0.11328-0.11719-0.21094-0.24609-0.32812-0.35938-0.11328-0.11328-0.23828-0.20703-0.35547-0.32031-0.75-0.73047-1.5156-1.4375-2.3242-2.1016-0.46484-0.38281-0.95312-0.71484-1.4297-1.0703-0.48047-0.35938-0.95312-0.73438-1.4531-1.0664-0.55078-0.36719-1.1211-0.6875-1.6875-1.0234-0.46484-0.27734-0.91406-0.56641-1.3906-0.82422-0.56641-0.30469-1.1484-0.5625-1.7266-0.83203-0.50781-0.23828-1.0078-0.49219-1.5312-0.71094-0.55859-0.23047-1.1289-0.41797-1.6953-0.62109-0.5625-0.20312-1.1211-0.41797-1.6953-0.59375-0.56641-0.17188-1.1367-0.29688-1.7109-0.4375-0.58984-0.14844-1.1758-0.31641-1.7773-0.43359-0.65625-0.12891-1.3164-0.20703-1.9727-0.30078-0.52734-0.074219-1.043-0.17578-1.5781-0.22656-1.2031-0.11719-2.4141-0.18359-3.625-0.18359h-0.023437c-1.1992 0-2.4023 0.0625-3.5977 0.18359-0.55078 0.054688-1.082 0.15625-1.625 0.23438-0.64062 0.09375-1.2852 0.16797-1.9219 0.29297-0.62109 0.12109-1.2227 0.29297-1.8281 0.44531-0.55078 0.14063-1.1094 0.26172-1.6562 0.42578-0.59375 0.17969-1.168 0.40234-1.75 0.61328-0.54688 0.19531-1.1016 0.375-1.6406 0.60156-0.53906 0.22266-1.0586 0.48828-1.5859 0.73437-0.55859 0.26172-1.125 0.51172-1.6719 0.80469-0.49609 0.26562-0.96875 0.57031-1.4492 0.85547-0.54688 0.32422-1.0977 0.63281-1.6328 0.99219-0.51953 0.34766-1.0078 0.73828-1.5117 1.1094-0.45703 0.34375-0.92969 0.66016-1.375 1.0273-0.81641 0.66797-1.5898 1.3828-2.3438 2.1172-0.10938 0.10547-0.23047 0.19922-0.33984 0.30859-0.11719 0.11719-0.21094 0.24219-0.32812 0.35938-0.72656 0.74609-1.4336 1.5117-2.0938 2.3164-0.03125 0.039062-0.066406 0.070312-0.097656 0.10937-0.35547 0.43359-0.65625 0.89844-0.98828 1.3438-0.35156 0.47656-0.72266 0.9375-1.0508 1.4297-0.37109 0.55469-0.69531 1.1289-1.0312 1.6992-0.27344 0.46094-0.5625 0.90625-0.81641 1.3789-0.30859 0.57422-0.56641 1.1641-0.84375 1.75-0.23438 0.5-0.48438 0.99219-0.69922 1.5039-0.23438 0.57031-0.42578 1.1523-0.63281 1.7305-0.19531 0.55078-0.41016 1.0938-0.57812 1.6602-0.17578 0.57812-0.30469 1.168-0.45312 1.7539-0.14453 0.57422-0.30469 1.1445-0.42188 1.7305-0.13281 0.67578-0.21484 1.3555-0.3125 2.0391-0.070313 0.50391-0.16797 1.0039-0.21875 1.5156-0.11719 1.207-0.18359 2.418-0.18359 3.6289s0.066406 2.4219 0.18359 3.625c0.050781 0.53516 0.15234 1.0508 0.22656 1.5781 0.09375 0.66016 0.17188 1.3203 0.30078 1.9727 0.12109 0.60938 0.28906 1.1992 0.4375 1.793 0.14062 0.56641 0.26562 1.1328 0.43359 1.6914 0.17969 0.58594 0.39844 1.1523 0.60547 1.7266 0.19922 0.55469 0.38281 1.1133 0.60938 1.6602 0.22266 0.54297 0.48828 1.0586 0.73828 1.5898 0.26172 0.55469 0.50781 1.1172 0.80078 1.6641 0.27344 0.51172 0.58594 1 0.88281 1.4961 0.31641 0.52734 0.61719 1.0664 0.96094 1.582 0.375 0.5625 0.79297 1.0898 1.1992 1.6289 0.3125 0.41406 0.60156 0.84375 0.93359 1.25 1.543 1.8789 3.2656 3.6016 5.1445 5.1406 0.33984 0.27734 0.69922 0.51953 1.0469 0.78125 0.60547 0.46094 1.2109 0.93359 1.8438 1.3555 0.44531 0.29688 0.90625 0.55078 1.3594 0.82422 0.57031 0.34766 1.1328 0.70312 1.7266 1.0195 0.46875 0.25 0.94922 0.45703 1.4219 0.6875 0.60938 0.29297 1.2109 0.59375 1.8359 0.85156 0.45312 0.1875 0.91797 0.33594 1.3789 0.50391 0.66797 0.24609 1.332 0.49609 2.0156 0.70312 0.4375 0.13281 0.88281 0.22656 1.3242 0.33984 0.71484 0.1875 1.4258 0.38281 2.1602 0.52734 0.47266 0.09375 0.95313 0.14453 1.4297 0.21875 0.70312 0.10938 1.4023 0.23438 2.1172 0.30469 0.73437 0.070312 1.4688 0.082031 2.2031 0.10938 0.46094 0.015625 0.91016 0.070313 1.375 0.070313 0.44922 0 0.88281-0.050782 1.3281-0.066407 0.75391-0.027343 1.5039-0.039062 2.2539-0.11328 0.69922-0.066406 1.3828-0.19141 2.0703-0.29688 0.49219-0.078125 0.98828-0.12891 1.4805-0.22656 0.71484-0.14062 1.4102-0.33203 2.1055-0.51562 0.46094-0.11719 0.92188-0.21875 1.3789-0.35547 0.66797-0.20312 1.3125-0.44922 1.9609-0.6875 0.47656-0.17578 0.96094-0.32812 1.4336-0.52344 0.60547-0.25 1.1914-0.54297 1.7812-0.82812 0.42188-0.20312 0.85547-0.37109 1.2734-0.58984 0.070312-0.035156 0.13672-0.082031 0.20312-0.12109 0.57031-0.30469 1.1172-0.65234 1.668-0.98828 0.47266-0.28516 0.95313-0.55078 1.4141-0.85938 0.61719-0.41406 1.1992-0.86719 1.7891-1.3164 0.36719-0.27734 0.74219-0.53125 1.1016-0.82422 1.8789-1.5391 3.6016-3.2617 5.1406-5.1406 0.33203-0.40625 0.62109-0.83203 0.93359-1.25 0.40625-0.53906 0.82422-1.0664 1.1992-1.6289 0.34375-0.51562 0.64453-1.0547 0.96094-1.582 0.29688-0.49609 0.60938-0.98438 0.88281-1.4961 0.29297-0.54688 0.53906-1.1055 0.80078-1.6641 0.25-0.52734 0.51172-1.0469 0.73828-1.5898 0.22656-0.54688 0.41016-1.1055 0.60938-1.6602 0.20703-0.57422 0.42578-1.1406 0.60547-1.7266 0.16797-0.55859 0.29297-1.125 0.43359-1.6914 0.14844-0.59766 0.31641-1.1875 0.4375-1.793 0.12891-0.65234 0.20703-1.3125 0.30078-1.9727 0.074219-0.52734 0.17578-1.043 0.22656-1.5781 0.23828-2.4102 0.23828-4.8398 0-7.25-0.027343-0.50781-0.12891-1.0234-0.20312-1.543z"/>
 <path d="m630.63 504.45c0 20.266-16.434 36.699-36.699 36.699-20.27 0-36.703-16.434-36.703-36.699 0-20.27 16.434-36.703 36.703-36.703 20.266 0 36.699 16.434 36.699 36.703z"/>
 <path d="m630.63 389.79c0 20.27-16.434 36.703-36.699 36.703-20.27 0-36.703-16.434-36.703-36.703 0-20.266 16.434-36.699 36.703-36.699 20.266 0 36.699 16.434 36.699 36.699z"/>
 <path d="m630.63 275.13c0 20.27-16.434 36.699-36.699 36.699-20.27 0-36.699-16.43-36.699-36.699 0-20.266 16.43-36.699 36.699-36.699 20.266 0 36.699 16.434 36.699 36.699z"/>
 <path d="m630.63 160.47c0 20.27-16.434 36.699-36.699 36.699-20.27 0-36.699-16.43-36.699-36.699 0-20.266 16.43-36.695 36.699-36.695 20.266 0 36.699 16.43 36.699 36.695z"/>
 <path d="m425.92 1007.3c18.645 7.9453 27.312 29.504 19.367 48.148-7.9492 18.641-29.504 27.312-48.148 19.363-18.645-7.9453-27.316-29.504-19.371-48.148 7.9492-18.645 29.508-27.312 48.152-19.363z"/>
 <path d="m470.89 901.78c18.645 7.9453 27.312 29.504 19.367 48.152-7.9492 18.645-29.504 27.316-48.148 19.371-18.645-7.9492-27.316-29.508-19.367-48.152 7.9453-18.645 29.504-27.316 48.148-19.371z"/>
 <path d="m515.86 796.3c18.645 7.9492 27.312 29.508 19.363 48.152s-29.508 27.312-48.148 19.363c-18.645-7.9492-27.316-29.508-19.367-48.148 7.9492-18.645 29.508-27.316 48.152-19.367z"/>
 <path d="m695.71 374.4c18.645 7.9492 27.316 29.508 19.367 48.152-7.9453 18.645-29.504 27.316-48.148 19.371-18.645-7.9492-27.316-29.508-19.367-48.152 7.9492-18.645 29.504-27.316 48.148-19.371z"/>
 <path d="m740.68 268.93c18.645 7.9492 27.316 29.508 19.367 48.152s-29.508 27.316-48.152 19.367c-18.645-7.9492-27.316-29.508-19.367-48.152s29.508-27.316 48.152-19.367z"/>
 <path d="m785.65 163.45c18.645 7.9492 27.316 29.508 19.367 48.152-7.9492 18.645-29.508 27.316-48.152 19.371-18.645-7.9492-27.316-29.508-19.367-48.156 7.9492-18.645 29.508-27.316 48.152-19.367z"/>
 <path d="m1027.7 765.22c18.645 7.9453 27.316 29.504 19.367 48.148-7.9492 18.645-29.504 27.316-48.152 19.367-18.645-7.9453-27.316-29.504-19.367-48.148 7.9492-18.645 29.504-27.316 48.152-19.367z"/>
 <path d="m922.21 720.25c18.645 7.9492 27.316 29.508 19.367 48.152-7.9492 18.645-29.508 27.316-48.152 19.367s-27.316-29.508-19.367-48.152c7.9492-18.648 29.508-27.316 48.152-19.367z"/>
 <path d="m816.73 675.29c18.645 7.9453 27.316 29.504 19.371 48.148-7.9492 18.645-29.508 27.312-48.152 19.367-18.645-7.9492-27.316-29.508-19.367-48.148 7.9492-18.645 29.504-27.316 48.148-19.367z"/>
 <path d="m394.84 495.42c18.645 7.9492 27.316 29.508 19.367 48.152-7.9492 18.648-29.508 27.316-48.152 19.367-18.648-7.9492-27.32-29.508-19.371-48.152 7.9492-18.645 29.508-27.316 48.156-19.367z"/>
 <path d="m289.36 450.46c18.641 7.9453 27.312 29.504 19.367 48.148-7.9492 18.645-29.508 27.316-48.152 19.367-18.641-7.9453-27.312-29.504-19.367-48.148 7.9492-18.645 29.508-27.316 48.152-19.367z"/>
 <path d="m183.89 405.49c18.645 7.9492 27.312 29.508 19.363 48.152s-29.508 27.312-48.152 19.359c-18.645-7.9492-27.316-29.508-19.363-48.152 7.9492-18.641 29.508-27.312 48.152-19.359z"/>
 <path d="m807.55 1026.6c7.9492 18.645-0.72266 40.203-19.367 48.148-18.641 7.9492-40.199-0.72266-48.148-19.363-7.9453-18.645 0.72266-40.203 19.367-48.148 18.645-7.9492 40.199 0.72266 48.148 19.363z"/>
 <path d="m762.59 921.15c7.9492 18.645-0.72266 40.203-19.367 48.152-18.645 7.9453-40.203-0.72656-48.152-19.371-7.9453-18.645 0.72266-40.203 19.367-48.152 18.645-7.9492 40.203 0.72266 48.152 19.371z"/>
 <path d="m717.62 815.67c7.9492 18.645-0.72266 40.203-19.371 48.152-18.645 7.9453-40.203-0.72656-48.148-19.371-7.9492-18.645 0.72266-40.199 19.371-48.148 18.645-7.9492 40.203 0.72266 48.148 19.367z"/>
 <path d="m537.76 393.77c7.9492 18.645-0.72266 40.199-19.367 48.148s-40.199-0.72266-48.148-19.367c-7.9492-18.645 0.72266-40.203 19.367-48.148 18.645-7.9492 40.203 0.72266 48.148 19.367z"/>
 <path d="m492.79 288.29c7.9492 18.645-0.72266 40.203-19.367 48.152-18.645 7.9492-40.203-0.72266-48.152-19.367-7.9492-18.645 0.72266-40.203 19.367-48.152s40.203 0.72266 48.152 19.367z"/>
 <path d="m447.83 182.82c7.9492 18.645-0.72266 40.203-19.367 48.152-18.648 7.9453-40.203-0.72656-48.152-19.371-7.9492-18.645 0.72266-40.203 19.367-48.152 18.648-7.9492 40.203 0.72656 48.152 19.371z"/>
 <path d="m205.79 784.59c7.9492 18.645-0.72266 40.203-19.367 48.148-18.645 7.9492-40.199-0.72266-48.148-19.367-7.9492-18.645 0.72266-40.203 19.367-48.148 18.645-7.9492 40.203 0.72266 48.148 19.367z"/>
 <path d="m311.27 739.62c7.9492 18.645-0.71875 40.203-19.363 48.152-18.645 7.9492-40.203-0.71875-48.156-19.363-7.9492-18.645 0.72266-40.203 19.367-48.152 18.645-7.9531 40.203 0.71875 48.152 19.363z"/>
 <path d="m416.74 694.66c7.9453 18.645-0.72656 40.203-19.371 48.148-18.641 7.9492-40.199-0.72266-48.148-19.371-7.9453-18.645 0.72266-40.203 19.367-48.148 18.645-7.9492 40.203 0.72266 48.152 19.371z"/>
 <path d="m838.64 514.79c7.9492 18.645-0.71875 40.203-19.363 48.152-18.645 7.9492-40.203-0.72266-48.152-19.367-7.9492-18.645 0.72266-40.199 19.367-48.148 18.645-7.9492 40.203 0.71875 48.148 19.363z"/>
 <path d="m944.12 469.82c7.9453 18.645-0.72656 40.203-19.371 48.148-18.645 7.9492-40.203-0.72266-48.148-19.367-7.9492-18.645 0.72266-40.203 19.367-48.148 18.645-7.9492 40.203 0.72266 48.152 19.367z"/>
 <path d="m1049.6 424.86c7.9492 18.641-0.71875 40.199-19.367 48.148-18.645 7.9492-40.203-0.71875-48.152-19.363-7.9492-18.641 0.72266-40.199 19.367-48.148 18.645-7.9492 40.203 0.71875 48.152 19.363z"/>
 <path d="m295.57 917.47c14.332 14.332 14.332 37.57 0 51.902-14.332 14.332-37.57 14.332-51.902 0-14.332-14.332-14.332-37.566 0-51.902 14.332-14.332 37.57-14.332 51.902 0z"/>
 <path d="m376.65 836.39c14.332 14.332 14.332 37.566 0 51.898-14.332 14.332-37.566 14.332-51.898 0-14.332-14.332-14.332-37.566 0-51.898 14.332-14.332 37.566-14.332 51.898 0z"/>
 <path d="m457.73 755.31c14.332 14.332 14.332 37.566 0.003907 51.898-14.332 14.332-37.566 14.332-51.898 0.003906-14.332-14.332-14.332-37.566-0.003906-51.898 14.332-14.332 37.566-14.332 51.898-0.003906z"/>
 <path d="m538.8 674.24c14.332 14.328 14.332 37.566 0.003906 51.898-14.332 14.332-37.566 14.332-51.898 0-14.332-14.332-14.336-37.566-0.003906-51.898s37.566-14.332 51.898 0z"/>
 <path d="m700.96 512.08c14.332 14.332 14.332 37.57 0 51.902-14.332 14.332-37.57 14.332-51.902 0-14.332-14.332-14.332-37.566 0-51.902 14.332-14.332 37.566-14.332 51.902 0z"/>
 <path d="m782.04 431c14.336 14.332 14.336 37.57 0.003906 51.902-14.332 14.332-37.57 14.336-51.902 0.003906-14.332-14.332-14.332-37.57-0.003907-51.902 14.332-14.336 37.57-14.336 51.902-0.003906z"/>
 <path d="m863.11 349.93c14.332 14.332 14.332 37.566 0 51.898s-37.57 14.332-51.902 0c-14.332-14.332-14.332-37.566 0-51.898 14.332-14.332 37.57-14.332 51.902 0z"/>
 <path d="m944.19 268.86c14.332 14.332 14.332 37.57 0 51.902-14.336 14.328-37.57 14.328-51.902-0.003906-14.332-14.332-14.332-37.57 0-51.902 14.332-14.332 37.57-14.332 51.902 0.003907z"/>
 <path d="m944.19 917.47c14.332 14.328 14.332 37.566 0 51.898-14.332 14.332-37.57 14.332-51.902 0-14.332-14.332-14.332-37.57 0-51.902 14.332-14.328 37.57-14.328 51.902 0.003906z"/>
 <path d="m863.11 836.39c14.332 14.332 14.332 37.566 0 51.898s-37.57 14.332-51.902 0c-14.332-14.332-14.332-37.566 0-51.898 14.332-14.332 37.57-14.332 51.902 0z"/>
 <path d="m782.04 755.31c14.332 14.332 14.336 37.566 0.003906 51.898-14.332 14.336-37.566 14.336-51.902 0.003906-14.332-14.328-14.332-37.566 0-51.898 14.328-14.332 37.566-14.336 51.898-0.003906z"/>
 <path d="m700.96 674.23c14.332 14.332 14.336 37.566 0.003907 51.902-14.332 14.332-37.566 14.332-51.898 0-14.332-14.328-14.336-37.566-0.003906-51.898 14.328-14.332 37.566-14.336 51.898-0.003906z"/>
 <path d="m538.81 512.08c14.332 14.332 14.332 37.57 0 51.902-14.332 14.332-37.57 14.332-51.902 0s-14.332-37.57 0-51.902c14.332-14.328 37.57-14.328 51.902 0z"/>
 <path d="m457.73 431c14.332 14.332 14.336 37.57 0.003907 51.902s-37.57 14.336-51.902 0.003906c-14.332-14.332-14.336-37.57-0.003906-51.902 14.332-14.336 37.57-14.336 51.902-0.003906z"/>
 <path d="m376.65 349.93c14.332 14.332 14.332 37.566 0 51.898-14.332 14.332-37.566 14.332-51.898 0-14.332-14.332-14.332-37.566 0-51.898 14.332-14.332 37.566-14.332 51.898 0z"/>
 <path d="m295.57 268.85c14.332 14.332 14.332 37.57 0 51.902-14.332 14.336-37.57 14.336-51.902 0-14.332-14.332-14.332-37.57 0-51.902 14.332-14.332 37.57-14.332 51.902 0z"/>
</svg>
